<svg width="8" height="10" viewBox="0 0 8 10" fill="none" xmlns="http://www.w3.org/2000/svg">
<path d="M0.607082 3.22762L0.542186 2.57067C0.514707 2.2925 0.708797 2.01178 0.975057 1.94459L6.50638 0.515725C6.77391 0.446687 7.01244 0.615772 7.03835 0.892828L7.60663 6.64559C7.6341 6.92376 7.44001 7.20448 7.17375 7.27167L6.54191 7.43471C6.27153 7.50449 6.03085 7.32837 6.00877 7.04577L5.74597 3.5433L2.07614 8.85111C1.90631 9.09674 1.60178 9.17533 1.39307 9.02738L0.890915 8.67141C0.682207 8.52346 0.650929 8.20682 0.820757 7.96119L4.49058 2.65338L1.15044 3.60178C0.87936 3.67932 0.633576 3.51059 0.607082 3.22762Z" fill="#F4F9FE"/>
</svg>
